<svg xmlns="http://www.w3.org/2000/svg" width="136.498" height="62.664" viewBox="0 0 136.498 62.664">
  <g id="Group_198" data-name="Group 198" transform="translate(0 -0.001)">
    <path id="Path_5999" data-name="Path 5999" d="M272.956,626.363H177.731a1.231,1.231,0,0,0-1.231,1.231v40.224a1.231,1.231,0,1,0,2.463,0V628.826h93.993a1.231,1.231,0,1,0,0-2.463" transform="translate(-172.396 -614.594)" fill="#4d4d4d"/>
    <path id="Path_6000" data-name="Path 6000" d="M176.836,616.363a5.336,5.336,0,1,0,5.336,5.336,5.342,5.342,0,0,0-5.336-5.336m0,8.209a2.873,2.873,0,1,1,2.873-2.873,2.876,2.876,0,0,1-2.873,2.873" transform="translate(-171.5 -564.37)" fill="#4d4d4d"/>
    <path id="Path_5997" data-name="Path 5997" d="M303,687.206V662.027l15.6,12.589Z" transform="translate(-195.052 -662.026)" fill="#32323b"/>
    <path id="Path_5998" data-name="Path 5998" d="M320.454,663.306a1.231,1.231,0,0,0-.774,2.189l11.583,9.35-11.583,9.349a1.231,1.231,0,1,0,1.547,1.916L334,675.8a1.231,1.231,0,0,0,0-1.916l-12.77-10.308a1.22,1.22,0,0,0-.772-.273" transform="translate(-197.957 -662.255)" fill="#4d4d4d"/>
  </g>
</svg>
