<svg xmlns="http://www.w3.org/2000/svg" width="127.649" height="64.306" viewBox="0 0 127.649 64.306">
  <g id="Group_197" data-name="Group 197" transform="translate(-11658.278 -10988.195)">
    <path id="Path_5993" data-name="Path 5993" d="M433.463,668.692H349.731a1.231,1.231,0,0,1,0-2.463h82.5V625.594a1.231,1.231,0,0,1,2.463,0V667.46a1.231,1.231,0,0,1-1.231,1.231" transform="translate(11347.129 10372.041)" fill="#4d4d4d"/>
    <path id="Path_5996" data-name="Path 5996" d="M450.836,625.035a5.336,5.336,0,1,1,5.336-5.336,5.342,5.342,0,0,1-5.336,5.336m0-8.209a2.873,2.873,0,1,0,2.873,2.873,2.876,2.876,0,0,0-2.873-2.873" transform="translate(11329.756 10373.832)" fill="#4d4d4d"/>
    <path id="Path_5994" data-name="Path 5994" d="M303,662.027v25.179l15.6-12.589Z" transform="translate(11355.278 10365.296)" fill="#32323b"/>
    <path id="Path_5995" data-name="Path 5995" d="M320.454,686.385a1.231,1.231,0,0,1-.774-2.189l11.583-9.35L319.68,665.5a1.231,1.231,0,1,1,1.547-1.916L334,673.887a1.231,1.231,0,0,1,0,1.916l-12.77,10.308a1.22,1.22,0,0,1-.772.273" transform="translate(11352.373 10365.066)" fill="#4d4d4d"/>
  </g>
</svg>
